<?xml version="1.0" encoding="UTF-8"?>
<svg width="960px" height="960px" viewBox="0 0 960 960" version="1.1" xmlns="http://www.w3.org/2000/svg" xmlns:xlink="http://www.w3.org/1999/xlink">
    <title>7</title>
    <g id="7" stroke="none" stroke-width="1" fill="none" fill-rule="evenodd">
        <path d="M375,10 C580.449927,10 747,147.224724 747,316.5 C747,357.162849 737.389337,395.976241 719.937444,431.482297 C697.071504,427.23388 673.312493,425 648.950131,425 C500.90423,425 375.138778,507.492376 336.028821,621.336323 C273.473802,615.973941 215.519019,597.832507 166.08431,570.136969 L28.369106,611.640948 C24.5911291,612.779653 20.5166191,612.383856 17.0284335,610.539319 C9.80399458,606.719067 6.98402046,597.834944 10.6268235,590.565028 L10.7801713,590.26719 L65.5571593,486.672448 C26.0419756,437.990562 3,379.462356 3,316.5 C3,147.224724 169.550073,10 375,10 Z" id="Shape" fill="#000000"></path>
        <path d="M648.5,444 C817.775276,444 955,557.048101 955,696.5 C955,748.312177 936.057069,796.47949 903.56546,836.558062 L903.56546,836.558062 L946.369493,918.259117 L946.521708,918.557535 C950.136878,925.841233 947.283186,934.714583 940.044292,938.507372 C936.554841,940.335656 932.486221,940.717838 928.717338,939.57136 L928.717338,939.57136 L819.18384,906.256123 C770.400682,933.25015 711.682981,949 648.5,949 C479.224724,949 342,835.951899 342,696.5 C342,557.048101 479.224724,444 648.5,444 Z M719.73367,594 C689.231411,594 662.753116,611.145133 649.500786,636.279567 C636.246884,611.145133 609.768589,594 579.26633,594 C535.488745,594 500,629.316725 500,672.882114 C500,685.562839 503.006738,697.544708 508.349444,708.160198 C508.558177,708.691521 508.778408,709.231962 509.007698,709.778587 L509.007698,709.778587 L509.499011,710.928436 C526.012095,748.88092 572.202365,787.572077 648.069822,827.001906 L648.069822,827.001906 L649.001176,827.483793 L649.002,828 L649.499176,827.741793 L649.998,828 L649.997176,827.484793 L650.930178,827.001906 C727.563973,787.173796 773.918014,748.099356 789.992302,709.778587 C790.221592,709.231962 790.441823,708.691521 790.650556,708.160198 C795.993262,697.544708 799,685.562839 799,672.882114 C799,629.316725 763.511255,594 719.73367,594 Z" id="Combined-Shape" fill="#000000"></path>
    </g>
</svg>